<?xml version="1.0" encoding="utf-8"?>
<!-- Generator: Adobe Illustrator 24.2.0, SVG Export Plug-In . SVG Version: 6.00 Build 0)  -->
<svg version="1.1" id="Layer_1" xmlns="http://www.w3.org/2000/svg" xmlns:xlink="http://www.w3.org/1999/xlink" x="0px" y="0px"
	 viewBox="0 0 16 16" style="enable-background:new 0 0 16 16;" xml:space="preserve">
<style type="text/css">
	.st0{fill:#F4EE31;}
</style>
<g id="XMLID_1_">
	<g>
		<polygon class="st0" points="13.9,5 12.6,10 4.4,10 3.1,5 		"/>
		<path d="M13,14c0-0.6-0.4-1-1-1s-1,0.4-1,1s0.4,1,1,1S13,14.6,13,14z M12,12c1.1,0,2,0.9,2,2s-0.9,2-2,2s-2-0.9-2-2S10.9,12,12,12
			z"/>
		<path d="M6,14c0-0.6-0.4-1-1-1s-1,0.4-1,1s0.4,1,1,1S6,14.6,6,14z M5,12c1.1,0,2,0.9,2,2s-0.9,2-2,2s-2-0.9-2-2S3.9,12,5,12z"/>
		<path d="M12.6,10l1.3-5H3.1l1.2,5H12.6z M14.5,4C14.8,4,15,4.2,15,4.5c0,0,0,0.1,0,0.1l-1.5,6c0,0.2-0.3,0.4-0.5,0.4H4
			c-0.2,0-0.4-0.2-0.5-0.4L1.6,3H0.5C0.2,3,0,2.8,0,2.5S0.2,2,0.5,2H2c0.2,0,0.4,0.2,0.5,0.4L2.9,4H14.5z"/>
	</g>
	<g>
	</g>
</g>
</svg>
