<?xml version="1.0" encoding="utf-8"?>
<!-- Generator: Adobe Illustrator 24.2.0, SVG Export Plug-In . SVG Version: 6.00 Build 0)  -->
<svg version="1.1" id="Layer_1" xmlns="http://www.w3.org/2000/svg" xmlns:xlink="http://www.w3.org/1999/xlink" x="0px" y="0px"
	 viewBox="0 0 16 16" style="enable-background:new 0 0 16 16;" xml:space="preserve">
<style type="text/css">
	.st0{fill:#F4EE31;}
</style>
<g id="XMLID_1_">
	<g>
		<circle class="st0" cx="8" cy="8" r="7"/>
		<path d="M15,8c0-3.9-3.1-7-7-7S1,4.1,1,8s3.1,7,7,7S15,11.9,15,8z M16,8c0,4.4-3.6,8-8,8s-8-3.6-8-8s3.6-8,8-8S16,3.6,16,8z"/>
	</g>
	<g>
	</g>
</g>
<path d="M4.3,9.6C4.5,9.4,4.8,9.5,5,9.8c0.6,1.1,1.8,1.8,3,1.8c1.3,0,2.4-0.7,3-1.8c0.1-0.2,0.4-0.3,0.7-0.2C12,9.7,12,10,11.9,10.2
	c0,0,0,0,0,0c-0.8,1.4-2.3,2.3-3.9,2.3c-1.6,0-3.1-0.9-3.9-2.3C4,10,4,9.7,4.3,9.6z M7,6.5C7,7.3,6.6,8,6,8S5,7.3,5,6.5S5.4,5,6,5
	S7,5.7,7,6.5z M11,6.5C11,7.3,10.6,8,10,8S9,7.3,9,6.5S9.4,5,10,5S11,5.7,11,6.5z"/>
</svg>
