<?xml version="1.0" encoding="utf-8"?>
<!-- Generator: Adobe Illustrator 24.2.0, SVG Export Plug-In . SVG Version: 6.00 Build 0)  -->
<svg version="1.1" id="Layer_1" xmlns="http://www.w3.org/2000/svg" xmlns:xlink="http://www.w3.org/1999/xlink" x="0px" y="0px"
	 viewBox="0 0 16 16" style="enable-background:new 0 0 16 16;" xml:space="preserve">
<style type="text/css">
	.st0{fill:#F4EE31;}
</style>
<g id="XMLID_1_">
	<g>
		<path class="st0" d="M14.6,3c0.5,1,0.6,2.5-0.3,4.4c-0.9,1.8-2.8,4-6.3,6.4c-3.4-2.4-5.4-4.6-6.3-6.4C0.8,5.6,0.9,4.1,1.4,3
			c1.1-2.2,4.2-2.8,5.9-1L8,2.8L8.7,2C10.4,0.3,13.5,0.9,14.6,3z"/>
		<path d="M14.3,7.4c0.9-1.9,0.8-3.4,0.3-4.4c-1.1-2.2-4.2-2.8-5.9-1L8,2.8L7.3,2C5.6,0.3,2.5,0.9,1.4,3c-0.5,1-0.6,2.5,0.3,4.4
			c0.9,1.8,2.8,4,6.3,6.4C11.4,11.4,13.4,9.3,14.3,7.4z M8.2,1.1C12.7-3,23.3,4.9,8,15C-7.3,4.9,3.3-3,7.8,1.1
			C7.9,1.2,7.9,1.3,8,1.3C8.1,1.3,8.1,1.2,8.2,1.1z"/>
	</g>
	<g>
	</g>
</g>
</svg>
