<?xml version="1.0" encoding="utf-8"?>
<!-- Generator: Adobe Illustrator 24.2.0, SVG Export Plug-In . SVG Version: 6.00 Build 0)  -->
<svg version="1.1" id="Layer_1" xmlns="http://www.w3.org/2000/svg" xmlns:xlink="http://www.w3.org/1999/xlink" x="0px" y="0px"
	 viewBox="0 0 16 16" style="enable-background:new 0 0 16 16;" xml:space="preserve">
<style type="text/css">
	.st0{fill-rule:evenodd;clip-rule:evenodd;}
</style>
<path class="st0" d="M0.7,13.4c0-0.3,0.3-0.6,0.6-0.6h13.4c0.3,0,0.6,0.3,0.6,0.6c0,0.3-0.3,0.6-0.6,0.6H1.4C1,14,0.7,13.8,0.7,13.4
	z M0.7,9.8c0-0.3,0.3-0.6,0.6-0.6h13.4c0.3,0,0.6,0.3,0.6,0.6s-0.3,0.6-0.6,0.6H1.4C1,10.4,0.7,10.1,0.7,9.8z M0.7,6.1
	c0-0.3,0.3-0.6,0.6-0.6h13.4c0.3,0,0.6,0.3,0.6,0.6c0,0.3-0.3,0.6-0.6,0.6H1.4C1,6.7,0.7,6.4,0.7,6.1z M0.7,2.4
	c0-0.3,0.3-0.6,0.6-0.6h13.4c0.3,0,0.6,0.3,0.6,0.6S15.1,3,14.8,3H1.4C1,3,0.7,2.8,0.7,2.4z"/>
</svg>
