<?xml version="1.0" encoding="utf-8"?>
<!-- Generator: Adobe Illustrator 24.2.0, SVG Export Plug-In . SVG Version: 6.00 Build 0)  -->
<svg version="1.1" id="Layer_1" xmlns="http://www.w3.org/2000/svg" xmlns:xlink="http://www.w3.org/1999/xlink" x="0px" y="0px"
	 viewBox="0 0 16 16" style="enable-background:new 0 0 16 16;" xml:space="preserve">
<style type="text/css">
	.st0{fill:#F7EB14;}
</style>
<g id="XMLID_1_">
	<g>
		<circle class="st0" cx="6.5" cy="6.5" r="5.5"/>
		<path d="M6.5,12c3,0,5.5-2.5,5.5-5.5S9.5,1,6.5,1S1,3.5,1,6.5S3.5,12,6.5,12z M15.7,14.3c0.4,0.4,0.4,1,0,1.4s-1,0.4-1.4,0
			l-3.9-3.9c0,0-0.1-0.1-0.1-0.1c-2.3,1.7-5.4,1.7-7.7,0c-2.9-2.1-3.5-6.2-1.4-9.1c2.1-2.9,6.2-3.5,9.1-1.4c2.9,2.1,3.5,6.2,1.4,9.1
			c0,0,0.1,0.1,0.1,0.1L15.7,14.3z"/>
	</g>
	<g>
	</g>
</g>
</svg>
